<svg width="338" height="300" viewBox="0 0 338 300" fill="none" xmlns="http://www.w3.org/2000/svg">
<g clip-path="url(#clip0_2828_3193)">
<path d="M216.58 119.304H175.871C174.983 119.315 174.135 119.675 173.511 120.307C172.887 120.939 172.537 121.791 172.537 122.679V146.182C172.537 146.62 172.623 147.054 172.791 147.458C172.958 147.863 173.204 148.23 173.514 148.54C173.823 148.85 174.191 149.095 174.595 149.263C175 149.43 175.433 149.517 175.871 149.517H216.58C217.468 149.517 218.32 149.167 218.952 148.543C219.584 147.918 219.944 147.07 219.955 146.182V122.679C219.955 122.236 219.868 121.797 219.698 121.388C219.528 120.978 219.28 120.606 218.966 120.293C218.653 119.979 218.281 119.731 217.871 119.561C217.462 119.391 217.023 119.304 216.58 119.304ZM181.551 143.178V125.643H210.652V143.178H181.675" fill="black"/>
<path d="M55.5154 119.304H47.2831C47.2363 119.27 47.1803 119.251 47.1224 119.249C47.0644 119.247 47.0073 119.263 46.9584 119.294C46.9095 119.325 46.8711 119.37 46.8482 119.423C46.8254 119.476 46.8192 119.535 46.8303 119.592V143.178H18.9641V138.197C18.9648 138.117 18.9358 138.038 18.8827 137.978C18.8296 137.917 18.756 137.878 18.676 137.868H10.0733C9.99328 137.878 9.91974 137.917 9.86663 137.978C9.81352 138.038 9.78453 138.117 9.78517 138.197V146.182C9.796 147.07 10.1564 147.918 10.7882 148.543C11.42 149.167 12.2723 149.517 13.1604 149.517H52.4694C53.3537 149.517 54.2017 149.165 54.827 148.54C55.4522 147.915 55.8035 147.067 55.8035 146.182V119.592C55.8035 119.554 55.796 119.517 55.7816 119.482C55.7671 119.447 55.7459 119.415 55.7191 119.389C55.6923 119.362 55.6606 119.341 55.6256 119.326C55.5907 119.312 55.5532 119.304 55.5154 119.304Z" fill="black"/>
<path d="M164.182 119.304H117.958C117.878 119.304 117.799 119.333 117.739 119.386C117.678 119.439 117.639 119.512 117.629 119.592V125.19C117.638 125.274 117.675 125.353 117.735 125.413C117.795 125.473 117.874 125.511 117.958 125.52H136.398V149.228C136.398 149.305 136.429 149.378 136.483 149.432C136.537 149.486 136.61 149.517 136.687 149.517H144.919C144.957 149.609 145.031 149.683 145.123 149.722C145.216 149.76 145.32 149.761 145.413 149.722C145.506 149.684 145.579 149.611 145.618 149.518C145.657 149.425 145.657 149.321 145.619 149.228V125.643H164.059C164.139 125.633 164.212 125.594 164.266 125.533C164.319 125.472 164.348 125.394 164.347 125.314V119.592C164.353 119.533 164.34 119.474 164.31 119.422C164.281 119.371 164.236 119.329 164.182 119.304Z" fill="black"/>
<path d="M273.465 119.304H264.986C264.96 119.348 264.947 119.398 264.947 119.448C264.947 119.499 264.96 119.548 264.986 119.592V143.178H237.161V119.592C237.172 119.535 237.166 119.476 237.143 119.423C237.12 119.37 237.081 119.325 237.033 119.294C236.984 119.263 236.926 119.247 236.869 119.249C236.811 119.251 236.755 119.27 236.708 119.304H228.27C228.229 119.298 228.187 119.301 228.147 119.313C228.107 119.325 228.07 119.345 228.039 119.372C228.008 119.4 227.983 119.434 227.966 119.472C227.949 119.51 227.94 119.551 227.94 119.592V146.182C227.94 147.067 228.292 147.915 228.917 148.54C229.542 149.165 230.39 149.517 231.275 149.517H270.378C271.266 149.517 272.118 149.167 272.75 148.543C273.382 147.918 273.742 147.07 273.753 146.182V119.592C273.744 119.519 273.711 119.451 273.659 119.398C273.607 119.346 273.538 119.313 273.465 119.304Z" fill="black"/>
<path d="M328.661 148.981L311.497 137.209H324.874C325.762 137.198 326.61 136.838 327.234 136.206C327.858 135.574 328.208 134.722 328.208 133.834V122.679C328.214 122.238 328.131 121.8 327.966 121.391C327.801 120.982 327.556 120.609 327.246 120.295C326.936 119.981 326.567 119.732 326.16 119.562C325.752 119.392 325.315 119.304 324.874 119.304H282.107C282.031 119.304 281.958 119.334 281.904 119.389C281.85 119.443 281.819 119.516 281.819 119.592V149.228C281.819 149.305 281.85 149.378 281.904 149.432C281.958 149.486 282.031 149.517 282.107 149.517H290.34C290.416 149.517 290.489 149.486 290.543 149.432C290.598 149.378 290.628 149.305 290.628 149.228V132.105L315.86 149.393C315.994 149.43 316.137 149.43 316.271 149.393H328.29C328.344 149.372 328.39 149.335 328.422 149.287C328.454 149.239 328.472 149.183 328.472 149.125C328.472 149.068 328.454 149.012 328.422 148.964C328.39 148.916 328.344 148.879 328.29 148.858M290.628 125.396H318.659V130.829H290.998V125.643" fill="black"/>
<path d="M109.311 125.519C109.391 125.509 109.464 125.47 109.517 125.41C109.571 125.349 109.599 125.271 109.599 125.19V119.592C109.599 119.516 109.569 119.443 109.514 119.389C109.46 119.334 109.387 119.304 109.311 119.304H67.4085C66.9672 119.304 66.5303 119.392 66.1231 119.562C65.7159 119.732 65.3465 119.981 65.0363 120.295C64.7262 120.609 64.4815 120.982 64.3164 121.391C64.1512 121.8 64.069 122.238 64.0745 122.679V146.182C64.0745 147.067 64.4257 147.915 65.051 148.54C65.6763 149.165 66.5243 149.517 67.4085 149.517H109.311C109.387 149.517 109.46 149.486 109.514 149.432C109.569 149.378 109.599 149.305 109.599 149.228V143.63C109.599 143.593 109.591 143.555 109.577 143.52C109.562 143.485 109.541 143.453 109.514 143.427C109.488 143.4 109.456 143.379 109.421 143.364C109.386 143.35 109.349 143.342 109.311 143.342H73.0065V137.662H106.965C107.006 137.668 107.048 137.665 107.087 137.653C107.127 137.641 107.164 137.621 107.195 137.594C107.227 137.566 107.252 137.533 107.269 137.495C107.286 137.457 107.294 137.416 107.294 137.374V131.653C107.294 131.611 107.286 131.57 107.269 131.532C107.252 131.494 107.227 131.46 107.195 131.433C107.164 131.405 107.127 131.385 107.087 131.373C107.048 131.361 107.006 131.358 106.965 131.364H73.0065V125.643L109.311 125.519Z" fill="black"/>
<path d="M58.6043 163.141C59.4001 163.129 60.1882 163.298 60.9094 163.635C61.6059 163.913 62.2368 164.334 62.7616 164.87C63.3017 165.415 63.7346 166.058 64.0376 166.763C64.3595 167.462 64.5413 168.217 64.5727 168.986C64.5954 169.411 64.5954 169.837 64.5727 170.262V173.349C64.5962 173.76 64.5962 174.173 64.5727 174.584C64.5467 175.366 64.3648 176.136 64.0376 176.848C63.7238 177.535 63.292 178.162 62.7616 178.7C62.2472 179.248 61.6134 179.671 60.9094 179.935C60.1882 180.271 59.4001 180.44 58.6043 180.429H47.8201C47.8201 180.429 47.6143 180.429 47.6143 180.182V163.388C47.6143 163.388 47.6143 163.141 47.8201 163.141H58.6043ZM58.275 177.465C58.6395 177.477 58.9989 177.377 59.3041 177.177C59.6028 176.99 59.8673 176.753 60.0861 176.477C60.2988 176.189 60.4654 175.87 60.5801 175.53C60.6685 175.178 60.7372 174.821 60.7859 174.46C60.7859 174.131 60.7859 173.761 60.7859 173.267V170.344C60.7859 169.85 60.7859 169.439 60.7859 169.109C60.7573 168.746 60.6883 168.387 60.5801 168.039C60.4654 167.7 60.2988 167.381 60.0861 167.092C59.8795 166.801 59.6089 166.56 59.295 166.389C58.9811 166.218 58.6322 166.12 58.275 166.105H51.4423V177.465H58.275Z" fill="black"/>
<path d="M77.4119 168.08C77.4119 168.08 77.6177 168.08 77.6177 168.327V170.55C77.6177 170.55 77.6177 170.797 77.4119 170.797H72.4726C72.0764 170.745 71.6751 170.745 71.2789 170.797C71.0194 170.839 70.7768 170.953 70.5792 171.126C70.4183 171.268 70.3036 171.454 70.2499 171.661C70.2031 171.906 70.2031 172.157 70.2499 172.402V180.058C70.2499 180.058 70.2499 180.305 70.0441 180.305H66.9981C66.9641 180.313 66.9286 180.312 66.895 180.302C66.8614 180.293 66.8308 180.275 66.8061 180.25C66.7814 180.225 66.7634 180.195 66.7538 180.161C66.7442 180.128 66.7433 180.092 66.7512 180.058V172.155C66.7155 171.58 66.8162 171.004 67.0451 170.474C67.2739 169.945 67.6245 169.477 68.0683 169.109C69.3008 168.348 70.739 167.989 72.1844 168.08H77.4119Z" fill="black"/>
<path d="M82.9282 163.141H83.134V165.981H82.9282H79.9646H79.7588V163.347H79.9646L82.9282 163.141ZM82.9282 168.08L83.134 168.286V180.182C83.134 180.182 83.134 180.429 82.9282 180.429H79.9646C79.9646 180.429 79.7588 180.429 79.7588 180.182V168.286L79.9646 168.08H82.9282Z" fill="black"/>
<path d="M100.342 167.998C100.589 167.998 100.63 167.998 100.342 168.327C99.6012 170.097 98.9014 171.702 98.284 173.102L97.4608 174.913L96.761 176.518L96.226 177.712C96.1637 177.912 96.0809 178.105 95.979 178.288C95.7883 178.731 95.5392 179.146 95.2381 179.523C94.9823 179.837 94.6381 180.066 94.2502 180.182C94.0438 180.287 93.8212 180.356 93.5916 180.387H92.1098L91.4512 180.182C91.0823 180.051 90.7553 179.824 90.5045 179.523C90.1723 179.161 89.9074 178.743 89.7225 178.288C89.6205 178.105 89.5378 177.912 89.4755 177.712L88.9404 176.518L88.2407 174.913C87.9525 174.296 87.7056 173.719 87.4586 173.102C86.8 171.702 86.1003 170.097 85.3594 168.327C85.3594 168.121 85.3594 167.998 85.3594 167.998H88.076C88.2246 167.994 88.3708 168.036 88.4956 168.117C88.6204 168.197 88.718 168.314 88.7758 168.451L92.4803 176.683H92.7272L96.3906 168.451C96.4484 168.314 96.546 168.197 96.6708 168.117C96.7956 168.036 96.9417 167.994 97.0903 167.998H100.342Z" fill="black"/>
<path d="M112.69 168.08C113.286 168.077 113.876 168.203 114.418 168.451C114.919 168.674 115.378 168.98 115.777 169.356C116.149 169.765 116.443 170.239 116.641 170.756C116.876 171.257 116.989 171.807 116.97 172.361V174.46C116.955 174.772 116.823 175.066 116.6 175.283C116.483 175.419 116.337 175.526 116.173 175.597C116.01 175.668 115.832 175.702 115.653 175.695H106.063V176.189C106.066 176.577 106.196 176.953 106.433 177.259C106.55 177.421 106.705 177.551 106.885 177.637C107.065 177.723 107.263 177.763 107.462 177.753H116.106H116.312V180.017C116.312 180.017 116.312 180.264 116.106 180.264H107.009C106.408 180.274 105.813 180.133 105.281 179.852C104.782 179.593 104.336 179.244 103.963 178.823C103.591 178.391 103.286 177.906 103.058 177.383C102.853 176.856 102.728 176.3 102.688 175.736C102.688 175.53 102.688 175.242 102.688 174.954V173.225C102.688 172.937 102.688 172.69 102.688 172.443C102.687 171.874 102.814 171.311 103.058 170.797C103.264 170.25 103.571 169.748 103.963 169.315C104.366 169.038 104.811 168.83 105.281 168.698C105.813 168.417 106.408 168.276 107.009 168.286L112.69 168.08ZM113.225 173.02H113.472C113.491 172.974 113.501 172.925 113.501 172.875C113.501 172.826 113.491 172.777 113.472 172.731V172.32C113.499 172.122 113.484 171.92 113.428 171.728C113.371 171.537 113.274 171.359 113.142 171.208C112.858 170.997 112.508 170.895 112.155 170.92H107.462C107.274 170.907 107.086 170.934 106.909 170.997C106.732 171.061 106.57 171.161 106.433 171.291C106.187 171.576 106.055 171.943 106.063 172.32V173.143L113.225 173.02Z" fill="black"/>
<path d="M148.373 163.141C148.391 163.179 148.401 163.222 148.401 163.264C148.401 163.307 148.391 163.349 148.373 163.388L139.029 173.596V180.058C139.029 180.058 139.029 180.305 138.823 180.305H135.448C135.448 180.305 135.242 180.305 135.242 180.058V173.678L125.94 163.511C125.922 163.473 125.912 163.43 125.912 163.388C125.912 163.345 125.922 163.303 125.94 163.264C125.971 163.246 126.007 163.237 126.043 163.237C126.079 163.237 126.114 163.246 126.146 163.264H129.891C130.048 163.259 130.203 163.29 130.346 163.354C130.488 163.419 130.615 163.514 130.715 163.635L136.683 170.097C136.747 170.177 136.829 170.241 136.921 170.284C137.014 170.327 137.116 170.347 137.218 170.344C137.319 170.342 137.419 170.319 137.511 170.276C137.603 170.234 137.686 170.173 137.753 170.097L143.68 163.635C143.78 163.514 143.907 163.419 144.049 163.354C144.192 163.29 144.347 163.259 144.504 163.264L148.373 163.141Z" fill="black"/>
<path d="M156.36 167.957H158.788C159.515 167.982 160.235 168.107 160.929 168.327C161.486 168.536 162.002 168.842 162.452 169.233C162.855 169.625 163.164 170.104 163.357 170.632C163.6 171.166 163.752 171.736 163.81 172.32C163.854 172.964 163.854 173.61 163.81 174.254C163.851 174.871 163.851 175.49 163.81 176.107C163.747 176.702 163.595 177.285 163.357 177.835C163.149 178.344 162.841 178.806 162.452 179.194C162.016 179.603 161.496 179.912 160.929 180.099C160.262 180.306 159.569 180.416 158.871 180.429H156.36H153.849C153.151 180.416 152.458 180.306 151.791 180.099C151.214 179.933 150.689 179.621 150.268 179.194C149.864 178.81 149.541 178.348 149.321 177.835C149.117 177.291 148.979 176.725 148.91 176.148C148.867 175.517 148.867 174.885 148.91 174.254C148.866 173.597 148.866 172.937 148.91 172.279C148.978 171.715 149.116 171.162 149.321 170.632C149.549 170.112 149.87 169.638 150.268 169.233C150.689 168.805 151.214 168.493 151.791 168.327C152.491 168.142 153.208 168.031 153.931 167.998L156.36 167.957ZM156.36 177.877H157.965C158.399 177.886 158.832 177.816 159.241 177.671C159.508 177.579 159.748 177.424 159.941 177.218C160.083 176.987 160.193 176.737 160.27 176.477C160.296 176.148 160.296 175.818 160.27 175.489C160.292 175.105 160.292 174.721 160.27 174.337C160.292 173.925 160.292 173.513 160.27 173.102C160.296 172.773 160.296 172.443 160.27 172.114C160.193 171.854 160.083 171.605 159.941 171.373C159.759 171.155 159.515 170.997 159.241 170.92H157.924H154.672C154.234 170.871 153.793 170.871 153.355 170.92C153.093 170.997 152.862 171.156 152.696 171.373C152.525 171.593 152.399 171.845 152.326 172.114C152.303 172.457 152.303 172.8 152.326 173.143C152.304 173.541 152.304 173.939 152.326 174.337C152.305 174.707 152.305 175.078 152.326 175.448C152.303 175.791 152.303 176.134 152.326 176.477C152.399 176.746 152.525 176.998 152.696 177.218C152.873 177.423 153.1 177.579 153.355 177.671C153.765 177.813 154.197 177.882 154.631 177.877H156.36Z" fill="black"/>
<path d="M179.533 168.08C179.533 168.08 179.533 168.08 179.533 168.327V174.131C179.576 174.789 179.576 175.449 179.533 176.107C179.493 176.702 179.354 177.286 179.121 177.835C178.923 178.352 178.63 178.826 178.257 179.235C177.805 179.634 177.271 179.929 176.693 180.099C176.126 180.262 175.548 180.386 174.964 180.47H172.824H170.683C170.098 180.39 169.521 180.266 168.954 180.099C168.378 179.933 167.853 179.621 167.432 179.194C167.024 178.821 166.714 178.355 166.526 177.835C166.35 177.274 166.239 176.694 166.197 176.107C166.156 175.449 166.156 174.789 166.197 174.131V168.327V168.08H169.16C169.16 168.08 169.366 168.08 169.366 168.327V174.131C169.346 174.529 169.346 174.927 169.366 175.325C169.343 175.681 169.343 176.038 169.366 176.395C169.448 176.648 169.574 176.884 169.737 177.095C169.918 177.313 170.162 177.471 170.436 177.547C170.729 177.7 171.053 177.785 171.383 177.794H172.659H173.935C174.278 177.782 174.614 177.697 174.923 177.547C175.185 177.471 175.416 177.312 175.581 177.095C175.716 176.874 175.826 176.639 175.911 176.395C175.937 176.052 175.937 175.708 175.911 175.366C175.911 174.954 175.911 174.543 175.911 174.131V168.327C175.911 168.327 175.911 168.08 176.117 168.08H179.533Z" fill="black"/>
<path d="M192.499 168.08C192.533 168.072 192.568 168.073 192.602 168.083C192.635 168.092 192.666 168.11 192.691 168.135C192.715 168.16 192.733 168.19 192.743 168.224C192.753 168.258 192.754 168.293 192.746 168.327V170.55C192.754 170.584 192.753 170.619 192.743 170.653C192.733 170.687 192.715 170.717 192.691 170.742C192.666 170.767 192.635 170.785 192.602 170.794C192.568 170.804 192.533 170.805 192.499 170.797H187.559C187.163 170.747 186.762 170.747 186.366 170.797C186.108 170.846 185.868 170.959 185.666 171.126C185.518 171.278 185.406 171.461 185.337 171.661C185.312 171.908 185.312 172.156 185.337 172.402V180.058C185.337 180.058 185.337 180.305 185.131 180.305H182.167C182.167 180.305 182.167 180.305 182.167 180.058V172.155C182.131 171.58 182.232 171.004 182.461 170.474C182.69 169.945 183.041 169.477 183.484 169.109C184.714 168.341 186.154 167.981 187.6 168.08H192.499Z" fill="black"/>
<path d="M231.603 168.08C231.603 168.08 231.603 168.08 231.603 168.327V174.131C231.603 174.831 231.603 175.489 231.603 176.107C231.524 176.695 231.386 177.274 231.191 177.835C230.963 178.345 230.657 178.817 230.286 179.235C229.834 179.634 229.3 179.929 228.722 180.099C228.154 180.262 227.577 180.386 226.993 180.47H224.852H222.712C222.128 180.386 221.55 180.262 220.983 180.099C220.41 179.923 219.888 179.613 219.46 179.194C219.053 178.821 218.742 178.355 218.555 177.835C218.336 177.279 218.184 176.699 218.102 176.107C218.061 175.449 218.061 174.789 218.102 174.131V168.327C218.094 168.293 218.095 168.258 218.105 168.224C218.114 168.19 218.132 168.16 218.157 168.135C218.182 168.11 218.212 168.092 218.246 168.083C218.279 168.073 218.315 168.072 218.349 168.08H221.271C221.271 168.08 221.271 168.08 221.271 168.327V174.131C221.271 174.542 221.271 174.913 221.271 175.324C221.316 175.685 221.385 176.043 221.477 176.395C221.559 176.648 221.685 176.884 221.848 177.094C222.013 177.312 222.244 177.471 222.506 177.547C222.799 177.7 223.123 177.785 223.453 177.794H224.729H226.005C226.348 177.785 226.686 177.701 226.993 177.547C227.187 177.524 227.374 177.456 227.538 177.349C227.702 177.242 227.84 177.098 227.939 176.93C228.09 176.718 228.202 176.481 228.269 176.23C228.315 175.889 228.315 175.542 228.269 175.201C228.269 174.789 228.269 174.378 228.269 173.966V168.327C228.261 168.293 228.262 168.258 228.271 168.224C228.281 168.19 228.299 168.16 228.324 168.135C228.348 168.11 228.379 168.092 228.413 168.083C228.446 168.073 228.482 168.072 228.516 168.08H231.603Z" fill="black"/>
<path d="M239.464 164.828C239.498 164.821 239.533 164.822 239.567 164.831C239.601 164.841 239.631 164.859 239.656 164.883C239.681 164.908 239.699 164.939 239.708 164.972C239.718 165.006 239.719 165.041 239.711 165.075V168.08H245.226C245.226 168.08 245.226 168.08 245.226 168.327V170.55V170.797H239.711V176.107C239.719 176.506 239.848 176.894 240.081 177.218C240.184 177.387 240.329 177.526 240.503 177.62C240.676 177.714 240.872 177.76 241.069 177.753H244.897C244.897 177.753 245.144 177.753 245.144 177.959V180.182C245.152 180.216 245.151 180.251 245.141 180.285C245.132 180.318 245.114 180.349 245.089 180.374C245.064 180.398 245.034 180.416 245 180.426C244.967 180.436 244.931 180.437 244.897 180.429H240.781C240.184 180.442 239.592 180.315 239.052 180.058C238.532 179.831 238.058 179.51 237.653 179.111C237.278 178.72 236.984 178.258 236.788 177.753C236.557 177.236 236.444 176.673 236.459 176.107V170.797H234.319C234.285 170.805 234.249 170.804 234.216 170.794C234.182 170.785 234.151 170.767 234.127 170.742C234.102 170.717 234.084 170.687 234.074 170.653C234.065 170.619 234.064 170.584 234.072 170.55V168.327C234.064 168.293 234.065 168.258 234.074 168.224C234.084 168.19 234.102 168.16 234.127 168.135C234.151 168.11 234.182 168.092 234.216 168.083C234.249 168.073 234.285 168.072 234.319 168.08H236.171V165.075C236.171 165.075 236.171 164.828 236.377 164.828H239.464Z" fill="black"/>
<path d="M261.074 168.08C261.108 168.072 261.143 168.073 261.177 168.083C261.21 168.092 261.241 168.11 261.266 168.135C261.29 168.16 261.308 168.19 261.318 168.224C261.328 168.258 261.329 168.293 261.321 168.327V174.131C261.364 174.789 261.364 175.449 261.321 176.107C261.261 176.699 261.123 177.28 260.909 177.835C260.696 178.353 260.389 178.828 260.003 179.235C259.564 179.629 259.044 179.924 258.48 180.099C257.913 180.262 257.336 180.386 256.752 180.47H254.611H252.43C251.859 180.39 251.294 180.266 250.742 180.099C250.153 179.933 249.616 179.621 249.178 179.194C248.789 178.806 248.481 178.344 248.272 177.835C248.054 177.279 247.902 176.699 247.82 176.107C247.779 175.449 247.779 174.789 247.82 174.131V168.327C247.812 168.293 247.813 168.258 247.822 168.224C247.832 168.19 247.85 168.16 247.875 168.135C247.899 168.11 247.93 168.092 247.964 168.083C247.997 168.073 248.033 168.072 248.067 168.08H250.989C251.023 168.072 251.059 168.073 251.092 168.083C251.126 168.092 251.156 168.11 251.181 168.135C251.206 168.16 251.224 168.19 251.233 168.224C251.243 168.258 251.244 168.293 251.236 168.327V174.131C251.216 174.528 251.216 174.927 251.236 175.324C251.213 175.681 251.213 176.038 251.236 176.395C251.318 176.648 251.444 176.884 251.607 177.094C251.772 177.312 252.003 177.471 252.265 177.547C252.558 177.7 252.882 177.785 253.212 177.794H254.529H255.805C256.135 177.785 256.459 177.7 256.752 177.547C257.02 177.483 257.255 177.322 257.41 177.094C257.573 176.884 257.699 176.648 257.781 176.395C257.807 176.052 257.807 175.708 257.781 175.366V168.327C257.773 168.293 257.774 168.258 257.783 168.224C257.793 168.19 257.811 168.16 257.836 168.135C257.86 168.11 257.891 168.092 257.925 168.083C257.958 168.073 257.994 168.072 258.028 168.08H261.074Z" fill="black"/>
<path d="M274.082 168.08C274.082 168.08 274.288 168.08 274.288 168.327V170.55C274.288 170.55 274.288 170.797 274.082 170.797H269.101C268.705 170.745 268.304 170.745 267.908 170.797C267.648 170.839 267.406 170.953 267.208 171.126C267.047 171.268 266.932 171.454 266.879 171.661C266.834 171.906 266.834 172.157 266.879 172.402V180.058C266.887 180.092 266.886 180.128 266.876 180.161C266.866 180.195 266.848 180.225 266.824 180.25C266.799 180.275 266.768 180.293 266.735 180.303C266.701 180.312 266.666 180.313 266.632 180.305H263.709C263.709 180.305 263.709 180.305 263.709 180.058V172.155C263.658 171.582 263.748 171.005 263.97 170.474C264.193 169.944 264.541 169.475 264.985 169.109C266.212 168.336 267.655 167.975 269.101 168.08H274.082Z" fill="black"/>
<path d="M286.512 168.08C287.095 168.083 287.67 168.209 288.2 168.451C288.708 168.659 289.17 168.967 289.558 169.356C289.93 169.774 290.235 170.246 290.464 170.756C290.68 171.263 290.792 171.809 290.793 172.361V174.46C290.763 174.792 290.612 175.1 290.369 175.328C290.126 175.556 289.808 175.686 289.476 175.695H279.844V176.189C279.847 176.577 279.977 176.953 280.214 177.259C280.334 177.418 280.489 177.546 280.668 177.632C280.848 177.718 281.045 177.76 281.243 177.753H289.887H290.134V180.017C290.142 180.051 290.141 180.086 290.132 180.12C290.122 180.154 290.104 180.184 290.079 180.209C290.055 180.234 290.024 180.252 289.99 180.261C289.957 180.271 289.921 180.272 289.887 180.264H280.791C280.201 180.28 279.619 180.138 279.103 179.852C278.583 179.608 278.121 179.257 277.745 178.823C277.022 177.944 276.578 176.869 276.469 175.736C276.487 175.476 276.487 175.214 276.469 174.954V173.225C276.488 172.965 276.488 172.704 276.469 172.443C276.509 171.879 276.634 171.324 276.839 170.797C277.061 170.258 277.367 169.758 277.745 169.315C278.125 168.896 278.587 168.56 279.103 168.327C279.619 168.041 280.201 167.899 280.791 167.916L286.512 168.08ZM287.006 173.02C287.115 173.02 287.22 172.976 287.297 172.899C287.374 172.822 287.418 172.717 287.418 172.608V172.196C287.44 171.995 287.418 171.792 287.354 171.6C287.29 171.408 287.186 171.232 287.047 171.085C286.768 170.863 286.414 170.76 286.059 170.797H281.449C281.071 170.78 280.701 170.913 280.42 171.167C280.174 171.453 280.042 171.819 280.05 172.196V173.02H287.006Z" fill="black"/>
<path d="M39.5448 173.143H9.78516V174.213H39.5448V173.143Z" fill="black"/>
<path d="M215.589 163.141H202.459V180.14C202.459 180.346 202.459 180.429 202.665 180.429H206.04C206.04 180.429 206.287 180.429 206.287 180.14V173.266H215.301C215.548 173.266 215.631 173.266 215.631 173.266V170.714C215.631 170.714 215.631 170.714 215.301 170.714H206.246V166.598H215.589H215.795V164.088C215.795 164.088 215.878 163.141 215.589 163.141Z" fill="black"/>
<path d="M328.623 173.143H298.863V174.213H328.623V173.143Z" fill="black"/>
</g>
<defs>
<clipPath id="clip0_2828_3193">
<rect width="319" height="61.248" fill="white" transform="translate(9.78516 119.304)"/>
</clipPath>
</defs>
</svg>
