<svg width="338" height="300" viewBox="0 0 338 300" fill="none" xmlns="http://www.w3.org/2000/svg">
<g clip-path="url(#clip0_2828_3170)">
<path d="M186.484 151.057C186.484 151.454 186.607 151.707 186.848 151.707C187.038 151.69 187.219 151.618 187.368 151.499L254.752 107.716C255.892 106.914 257.26 106.499 258.653 106.533H273.464C273.971 106.503 274.478 106.58 274.953 106.76C275.427 106.94 275.858 107.219 276.217 107.578C276.575 107.937 276.854 108.368 277.034 108.842C277.214 109.316 277.292 109.824 277.261 110.33V138.619C277.261 142.033 276.507 144.009 273.464 145.836L255.5 156.629C255.323 156.758 255.114 156.837 254.895 156.857C254.674 156.857 254.479 156.688 254.479 156.07V123.054C254.479 122.697 254.356 122.404 254.115 122.404C253.926 122.417 253.746 122.485 253.595 122.599L204.312 154.601C203.206 155.377 201.885 155.786 200.534 155.771H167.863C167.356 155.801 166.848 155.724 166.373 155.543C165.898 155.363 165.467 155.084 165.108 154.724C164.749 154.364 164.471 153.933 164.291 153.458C164.111 152.982 164.035 152.474 164.066 151.967V111.201C164.066 110.902 163.936 110.629 163.708 110.629C163.516 110.644 163.332 110.712 163.175 110.824L130.666 130.33C130.341 130.525 130.257 130.687 130.257 130.843C130.257 130.999 130.309 131.11 130.543 131.344L153.754 154.555C154.066 154.867 154.274 155.101 154.274 155.342C154.274 155.582 153.936 155.745 153.539 155.745H132.519C130.874 155.745 129.607 155.491 128.716 154.607L114.665 140.576C114.562 140.452 114.416 140.371 114.256 140.349C114.1 140.364 113.95 140.417 113.82 140.505L90.2579 154.653C89.1392 155.413 87.8134 155.811 86.4609 155.79H64.797C64.2899 155.821 63.7821 155.743 63.3072 155.563C62.8323 155.382 62.4011 155.103 62.0422 154.744C61.6833 154.384 61.4047 153.952 61.2251 153.477C61.0454 153.002 60.9687 152.494 61 151.987V124.205C61 120.804 61.7672 118.841 64.797 117.053L82.8784 106.156C83.023 106.059 83.192 106.005 83.366 106C83.6391 106 83.7951 106.286 83.7951 106.917V144.035C83.7951 144.425 83.9057 144.607 84.1592 144.607C84.3556 144.579 84.5413 144.5 84.6989 144.38L145.776 107.671C146.962 106.866 148.376 106.467 149.807 106.533H182.68C183.187 106.502 183.695 106.579 184.171 106.758C184.646 106.938 185.077 107.216 185.437 107.575C185.796 107.934 186.076 108.365 186.256 108.84C186.437 109.315 186.514 109.823 186.484 110.33V151.057Z" fill="black"/>
<path d="M61 172.5H62.736L68.425 185.718L74.114 172.5H75.8305V188.397H74.3416V175.328L68.7176 188.397H68.1129L62.4824 175.328V188.397H61V172.5Z" fill="black"/>
<path d="M78.2168 182.519C78.2168 178.943 80.3299 176.668 83.4182 176.668C86.5065 176.668 88.5806 178.943 88.5806 182.519V182.877C88.5806 186.453 86.4675 188.728 83.4182 188.728C80.3689 188.728 78.2493 186.472 78.2493 182.877L78.2168 182.519ZM83.4182 187.539C85.6743 187.539 87.1177 185.803 87.1177 182.877V182.519C87.1177 179.613 85.6743 177.838 83.4182 177.838C81.1621 177.838 79.7122 179.613 79.7122 182.519V182.877C79.6797 185.803 81.1556 187.539 83.3857 187.539H83.4182Z" fill="black"/>
<path d="M90.6217 176.98L94.3277 186.869L98.0597 176.98H99.5031L95.1339 188.397H93.4694L89.0938 176.98H90.6217Z" fill="black"/>
<path d="M100.062 182.396C100.062 179.047 102.09 176.668 105.055 176.668C107.903 176.668 109.827 178.547 109.827 182.519V183.13H101.498C101.583 185.595 102.942 187.539 105.204 187.539C105.959 187.533 106.705 187.376 107.398 187.078C108.092 186.78 108.719 186.346 109.242 185.803V187.35C108.105 188.272 106.674 188.754 105.211 188.709C101.96 188.709 100.068 186.329 100.068 182.857L100.062 182.396ZM108.403 181.999C108.338 179.047 106.895 177.838 105.055 177.838C103.215 177.838 101.648 179.444 101.524 181.999H108.403Z" fill="black"/>
<path d="M111.979 176.98H113.234L113.384 179.32C113.724 178.56 114.269 177.908 114.958 177.44C115.647 176.971 116.452 176.704 117.285 176.668C118.078 176.606 118.863 176.859 119.471 177.371C120.079 177.883 120.461 178.613 120.536 179.405C121.31 177.962 122.649 176.668 124.528 176.668C126.66 176.668 127.876 178.046 127.876 180.66V188.397H126.452V180.868C126.452 178.885 125.887 177.838 124.32 177.838C122.896 177.838 121.121 179.47 120.64 181.29V188.397H119.196V180.868C119.196 178.885 118.65 177.838 117.083 177.838C115.659 177.838 113.885 179.47 113.403 181.29V188.397H111.979V176.98Z" fill="black"/>
<path d="M129.918 182.396C129.918 179.047 131.947 176.668 134.918 176.668C137.766 176.668 139.69 178.547 139.69 182.519V183.13H131.361C131.446 185.595 132.805 187.539 135.067 187.539C135.822 187.533 136.568 187.376 137.261 187.078C137.955 186.78 138.582 186.346 139.105 185.803V187.35C137.966 188.274 136.533 188.756 135.067 188.709C131.816 188.709 129.918 186.329 129.918 182.857V182.396ZM138.266 181.999C138.201 179.047 136.758 177.838 134.918 177.838C133.078 177.838 131.511 179.444 131.387 181.999H138.266Z" fill="black"/>
<path d="M141.842 176.98H143.097L143.246 179.58C143.974 178.137 145.483 176.635 147.531 176.635C149.897 176.635 151.126 178.117 151.126 180.835V188.364H149.709V181.076C149.709 178.989 149.098 177.825 147.323 177.825C145.548 177.825 143.727 179.775 143.266 181.726V188.358H141.842V176.98Z" fill="black"/>
<path d="M152.427 176.98H154.956V173.508H156.38V176.98H158.909V178.17H156.38V188.397H154.956V178.17H152.427V176.98Z" fill="black"/>
<path d="M165.373 176.98H167.902V173.508H169.326V176.98H171.855V178.17H169.326V188.397H167.902V178.17H165.373V176.98Z" fill="black"/>
<path d="M173.48 172.376H174.904V179.528C175.633 178.104 177.141 176.642 179.15 176.642C181.51 176.642 182.745 178.124 182.745 180.842V188.371H181.322V181.076C181.322 178.989 180.717 177.825 178.942 177.825C177.167 177.825 175.405 179.684 174.904 181.674V188.384H173.48V172.376Z" fill="black"/>
<path d="M185.223 183.585C185.873 182.649 187.102 182.207 189.423 181.765L192.498 181.18C192.498 178.963 191.536 177.838 189.403 177.838C188.672 177.839 187.949 177.989 187.278 178.28C186.607 178.571 186.003 178.996 185.502 179.528V178.085C186.581 177.144 187.972 176.638 189.403 176.668C192.121 176.668 193.903 178.026 193.903 180.848V188.397H192.856L192.498 186.446C191.988 187.146 191.321 187.716 190.551 188.111C189.781 188.506 188.929 188.715 188.064 188.722C186.074 188.722 184.677 187.617 184.677 185.471C184.654 184.8 184.846 184.14 185.223 183.585ZM188.357 187.539C189.22 187.479 190.053 187.2 190.778 186.728C191.503 186.256 192.095 185.606 192.498 184.84V182.331L190.32 182.753C188.753 183.046 187.167 183.254 186.497 184.132C186.22 184.506 186.086 184.967 186.12 185.432C186.12 186.869 187.037 187.539 188.357 187.539Z" fill="black"/>
<path d="M195.163 176.98H197.699V173.508H199.116V176.98H201.652V178.17H199.116V188.397H197.699V178.17H195.163V176.98Z" fill="black"/>
<path d="M209.571 172.793H210.995V174.828H209.571V172.793ZM209.571 176.98H210.995V188.397H209.571V176.98Z" fill="black"/>
<path d="M213.791 176.98H215.046L215.195 179.58C215.924 178.137 217.432 176.635 219.48 176.635C221.847 176.635 223.082 178.117 223.082 180.835V188.364H221.658V181.076C221.658 178.989 221.053 177.825 219.272 177.825C217.491 177.825 215.677 179.775 215.215 181.726V188.358H213.791V176.98Z" fill="black"/>
<path d="M225.215 185.783C225.63 186.332 226.168 186.777 226.785 187.082C227.403 187.387 228.083 187.543 228.771 187.539C230.423 187.539 231.554 186.791 231.554 185.588C231.554 184.749 231.281 184.125 229.799 183.494L228.095 182.721C226.275 181.947 225.397 181.011 225.397 179.606C225.397 178.079 226.697 176.661 229.135 176.661C230.416 176.68 231.651 177.139 232.633 177.961V179.593C232.197 179.082 231.663 178.663 231.062 178.362C230.461 178.06 229.806 177.882 229.135 177.838C227.529 177.838 226.86 178.696 226.86 179.613C226.86 180.53 227.51 180.913 228.81 181.433L230.481 182.142C232.341 182.942 233.082 183.963 233.082 185.491C233.082 187.441 231.346 188.709 228.836 188.709C228.186 188.744 227.536 188.647 226.925 188.424C226.313 188.2 225.754 187.855 225.28 187.409L225.215 185.783Z" fill="black"/>
<path d="M235.116 176.98H236.371L236.495 179.028C236.881 178.338 237.438 177.759 238.111 177.346C238.785 176.933 239.554 176.699 240.344 176.668C243.25 176.668 245.304 179.047 245.304 182.669C245.304 186.29 243.25 188.709 240.344 188.709C239.571 188.675 238.818 188.449 238.154 188.052C237.49 187.655 236.935 187.098 236.54 186.433V193H235.116V176.98ZM240.22 187.539C242.372 187.539 243.842 185.588 243.842 182.669C243.842 179.749 242.372 177.838 240.22 177.838C238.608 177.838 237.086 179.281 236.54 181.037V184.34C237.086 186.095 238.608 187.539 240.22 187.539Z" fill="black"/>
<path d="M247.476 172.793H248.899V174.828H247.476V172.793ZM247.476 176.98H248.899V188.397H247.476V176.98Z" fill="black"/>
<path d="M251.684 176.98H252.938L253.062 179.008C253.332 178.322 253.802 177.732 254.41 177.315C255.018 176.898 255.738 176.672 256.475 176.668C256.863 176.66 257.25 176.715 257.62 176.83V178.085C257.215 177.952 256.791 177.888 256.365 177.896C254.967 177.896 253.667 178.989 253.114 180.725V188.397H251.69L251.684 176.98Z" fill="black"/>
<path d="M258.178 182.396C258.178 179.047 260.206 176.668 263.178 176.668C266.025 176.668 267.943 178.547 267.943 182.519V183.13H259.621C259.706 185.595 261.065 187.539 263.327 187.539C264.081 187.534 264.826 187.378 265.519 187.08C266.211 186.781 266.837 186.347 267.358 185.803V187.35C266.223 188.275 264.791 188.757 263.327 188.709C260.076 188.709 258.178 186.329 258.178 182.857V182.396ZM266.526 181.999C266.461 179.047 265.018 177.838 263.178 177.838C261.338 177.838 259.771 179.444 259.641 181.999H266.526Z" fill="black"/>
<path d="M269.466 185.783C269.879 186.333 270.416 186.778 271.032 187.083C271.649 187.387 272.328 187.544 273.016 187.539C274.674 187.539 275.799 186.791 275.799 185.588C275.799 184.749 275.525 184.125 274.043 183.494L272.307 182.721C270.487 181.947 269.609 181.011 269.609 179.606C269.609 178.079 270.948 176.661 273.354 176.661C274.633 176.679 275.866 177.138 276.845 177.961V179.593C276.41 179.082 275.877 178.663 275.277 178.362C274.678 178.06 274.024 177.882 273.354 177.838C271.741 177.838 271.072 178.696 271.072 179.613C271.072 180.53 271.722 180.913 273.022 181.433L274.7 182.142C276.559 182.942 277.3 183.963 277.3 185.491C277.3 187.441 275.564 188.709 273.055 188.709C272.406 188.744 271.756 188.647 271.146 188.424C270.536 188.2 269.977 187.855 269.505 187.409L269.466 185.783Z" fill="black"/>
</g>
<defs>
<clipPath id="clip0_2828_3170">
<rect width="216.261" height="87" fill="white" transform="translate(61 106)"/>
</clipPath>
</defs>
</svg>
