<svg width="130" height="34" viewBox="0 0 130 34" fill="none" xmlns="http://www.w3.org/2000/svg" data-v-5fc332f7=""><g clip-path="url(#clip0_1069_2880)"><path d="M28.5989 22.3872C31.6394 20.6692 32.6797 16.8638 30.925 13.8868C29.1704 10.9097 25.2838 9.89116 22.2433 11.6092L3.17871 22.3872C0.1382 24.1053 -0.902091 27.9107 0.852563 30.8877C2.60722 33.8648 6.4938 34.8833 9.5343 33.1653L28.5989 22.3872Z" fill="url(#paint0_linear_1069_2880)"></path><path d="M28.5989 11.6128C31.6394 13.3309 32.6797 17.1363 30.925 20.1133C29.1704 23.0903 25.2838 24.1089 22.2433 22.3909L3.17871 11.6106C0.1382 9.89262 -0.902091 6.08719 0.852563 3.11234C2.60722 0.135314 6.4938 -0.883258 9.53207 0.834763L28.5966 11.6128H28.5989Z" fill="url(#paint1_linear_1069_2880)"></path><path d="M12.709 6.22291C12.709 2.78468 9.86491 0 6.3556 0C2.84629 0 0 2.78468 0 6.22291V27.779C0 31.2129 2.84629 33.9998 6.3556 33.9998C9.86491 33.9998 12.7112 31.2151 12.7112 27.7769V6.22291H12.709Z" fill="url(#paint2_linear_1069_2880)"></path><path d="M57.3854 17.8443V17.7267H64.589V15.5744H57.3854V14.0488H66.1295V11.7006H53.5231V17.668C53.5231 19.4678 54.1242 20.7387 55.3441 21.4243C56.8044 22.2469 59.1863 22.2273 62.5677 22.2273H66.3899V19.7812H60.266C58.1645 19.7812 57.3854 19.174 57.3854 17.8443ZM115.796 15.0477C115.796 12.6799 114.195 11.7027 110.393 11.7027H102.408V21.446C102.408 22.0924 103.488 22.3274 104.349 22.3274C105.211 22.3274 106.27 22.0924 106.27 21.446V18.5124H109.712L110.751 20.2926C111.711 21.9357 112.292 22.2295 114.373 22.2295H116.054L113.32 17.9835C114.992 17.5243 115.794 16.6908 115.794 15.0499L115.796 15.0477ZM109.792 16.3578H106.27V14.0488H109.792C111.112 14.0488 111.893 14.2447 111.893 15.1826C111.893 16.1206 111.112 16.3557 109.792 16.3557V16.3578ZM43.9977 17.3437V9.88771C43.9977 9.16953 42.9158 8.92578 41.9697 8.92578C41.0237 8.92578 39.8661 9.1717 39.8661 9.88771V17.8356C39.8661 19.5722 40.4449 20.7997 41.6225 21.4591C43.0316 22.2513 45.3289 22.2339 48.5924 22.2339H49.5963C51.3349 22.2339 52.2031 21.2719 52.4346 19.9117L52.4724 19.6854H47.1053C44.5765 19.6854 43.9977 18.9868 43.9977 17.3437ZM76.3138 16.162L72.0308 11.7027H68.429V21.446C68.429 22.1512 69.3885 22.384 70.2099 22.384C71.0313 22.384 71.9908 22.149 71.9908 21.446V15.5961L76.3138 19.9988L80.6369 15.5961V21.4656C80.6369 22.1707 81.5763 22.384 82.4378 22.384C83.2993 22.384 84.1987 22.1686 84.1987 21.4656V11.7027H80.5968L76.3138 16.162ZM93.2232 11.4089C92.502 11.4089 91.5225 11.5852 90.9014 12.582L84.9377 22.2273H87.9785L89.3142 20.0358H96.1795L97.504 22.2273H101.667L95.5228 12.3883C94.9618 11.509 93.9422 11.4111 93.221 11.4111L93.2232 11.4089ZM90.6276 17.8834L92.7624 14.3818L94.8794 17.8834H90.6276ZM124.219 14.1467H129.422V11.7006H125.78C122.398 11.7006 121.018 11.7789 119.556 12.5994C118.336 13.2849 117.735 14.4579 117.735 16.2577V17.6658C117.735 19.4656 118.336 20.6386 119.556 21.3242C121.016 22.1468 122.396 22.223 125.78 22.223H129.422V19.7768H124.219C122.679 19.7768 121.637 19.2676 121.637 17.6049V16.1185C121.637 14.6516 122.677 14.1424 124.219 14.1424V14.1467Z" fill="#ED1A3B"></path></g><defs><linearGradient id="paint0_linear_1069_2880" x1="0.851179" y1="30.8871" x2="30.6021" y2="13.343" gradientUnits="userSpaceOnUse"><stop offset="0.16" stop-color="#4394D0"></stop><stop offset="0.66" stop-color="#05509E"></stop></linearGradient><linearGradient id="paint1_linear_1069_2880" x1="0.851953" y1="3.11079" x2="30.6029" y2="20.6548" gradientUnits="userSpaceOnUse"><stop stop-color="#EB1C3C"></stop><stop offset="0.12" stop-color="#E61C3D"></stop><stop offset="0.25" stop-color="#D91F43"></stop><stop offset="0.39" stop-color="#C3244C"></stop><stop offset="0.53" stop-color="#A52B59"></stop><stop offset="0.67" stop-color="#7E346A"></stop><stop offset="0.81" stop-color="#4E3F7E"></stop><stop offset="0.96" stop-color="#164C96"></stop><stop offset="1" stop-color="#05509E"></stop></linearGradient><linearGradient id="paint2_linear_1069_2880" x1="6.3556" y1="33.9998" x2="6.3556" y2="0" gradientUnits="userSpaceOnUse"><stop stop-color="#F89820"></stop><stop offset="0.82" stop-color="#EB1C3C"></stop></linearGradient><clipPath id="clip0_1069_2880"><rect width="130" height="34" fill="white"></rect></clipPath></defs></svg>